<svg xmlns="http://www.w3.org/2000/svg" viewBox="0 0 1000 460" role="img" aria-label="개발자·검색 크롤러·LLM — 세 유통 표면과 두 퍼널" font-family="Pretendard,'Apple SD Gothic Neo','Noto Sans KR',sans-serif"><title>개발자·검색 크롤러·LLM — 세 유통 표면과 두 퍼널</title><defs><marker id="mi" viewBox="0 0 10 10" refX="9" refY="5" markerWidth="7" markerHeight="7" orient="auto-start-reverse"><path d="M0,0L10,5L0,10z" fill="#2a2033"/></marker><marker id="mc" viewBox="0 0 10 10" refX="9" refY="5" markerWidth="8" markerHeight="8" orient="auto-start-reverse"><path d="M0,0L10,5L0,10z" fill="#d4604a"/></marker></defs><rect width="1000" height="460" fill="#fbf7f2"/><text fill="#2a2033" font-size="21" font-weight="700" text-anchor="middle" dominant-baseline="middle"><tspan x="500.0" y="38.0">세 유통 표면과 두 퍼널</tspan></text><rect x="40" y="190" width="200" height="86" rx="12" fill="#fffdfa" stroke="#ddd2dc" stroke-width="1.8"/><text fill="#2a2033" font-size="17" font-weight="700" text-anchor="middle" dominant-baseline="middle"><tspan x="140.0" y="233.0">DevRel 콘텐츠·자산</tspan></text><rect x="360" y="90" width="230" height="76" rx="12" fill="#fffdfa" stroke="#ddd2dc" stroke-width="1.8"/><text fill="#2a2033" font-size="17" font-weight="700" text-anchor="middle" dominant-baseline="middle"><tspan x="475.0" y="128.0">사람 개발자</tspan></text><path d="M240,233 C300,233 300,128 354,128" fill="none" stroke="#2a2033" stroke-width="2" marker-end="url(#mi)"/><rect x="360" y="190" width="230" height="76" rx="12" fill="#f7ddd5" stroke="#d4604a" stroke-width="2.5"/><text fill="#2a2033" font-size="17" font-weight="700" text-anchor="middle" dominant-baseline="middle"><tspan x="475.0" y="218.7">검색 크롤러</tspan></text><text fill="#6f6479" font-size="13.5" font-weight="400" text-anchor="middle" dominant-baseline="middle"><tspan x="475.0" y="240.8">양쪽 퍼널로 보낸다</tspan></text><path d="M240,233 C300,233 300,228 354,228" fill="none" stroke="#2a2033" stroke-width="2" marker-end="url(#mi)"/><rect x="360" y="290" width="230" height="76" rx="12" fill="#fffdfa" stroke="#ddd2dc" stroke-width="1.8"/><text fill="#2a2033" font-size="17" font-weight="700" text-anchor="middle" dominant-baseline="middle"><tspan x="475.0" y="328.0">LLM·코딩 에이전트</tspan></text><path d="M240,233 C300,233 300,328 354,328" fill="none" stroke="#2a2033" stroke-width="2" marker-end="url(#mi)"/><rect x="700" y="110" width="260" height="96" rx="12" fill="#ebe3f0" stroke="#ddd2dc" stroke-width="1.8"/><text fill="#2a2033" font-size="18" font-weight="700" text-anchor="middle" dominant-baseline="middle"><tspan x="830.0" y="148.1">human funnel</tspan></text><text fill="#6f6479" font-size="14.5" font-weight="400" text-anchor="middle" dominant-baseline="middle"><tspan x="830.0" y="171.5">영상·워크숍·서사 → 신뢰</tspan></text><rect x="700" y="260" width="260" height="96" rx="12" fill="#ebe3f0" stroke="#ddd2dc" stroke-width="1.8"/><text fill="#2a2033" font-size="18" font-weight="700" text-anchor="middle" dominant-baseline="middle"><tspan x="830.0" y="298.1">machine funnel</tspan></text><text fill="#6f6479" font-size="14.5" font-weight="400" text-anchor="middle" dominant-baseline="middle"><tspan x="830.0" y="321.5">문서·레퍼런스·MCP → 정확성</tspan></text><path d="M590,128 C645,128 645,158 694,158" fill="none" stroke="#2a2033" stroke-width="2" marker-end="url(#mi)"/><path d="M590,228 C645,228 645,158 694,158" fill="none" stroke="#2a2033" stroke-width="2" marker-end="url(#mi)"/><path d="M590,228 C645,228 645,308 694,308" fill="none" stroke="#2a2033" stroke-width="2" marker-end="url(#mi)"/><path d="M590,328 C645,328 645,308 694,308" fill="none" stroke="#2a2033" stroke-width="2" marker-end="url(#mi)"/></svg>